<mxfile host="app.diagrams.net" modified="2023-08-05T09:01:25.535Z" agent="Mozilla/5.0 (Windows NT 10.0; Win64; x64) AppleWebKit/537.36 (KHTML, like Gecko) Chrome/115.0.0.0 Safari/537.36" etag="ohyk1pkEi4hMKNm9m-iK" version="21.6.6" type="device">
  <diagram name="Page-1" id="KcpJl5SLcXk-gfii4vlG">
    <mxGraphModel dx="880" dy="478" grid="1" gridSize="10" guides="1" tooltips="1" connect="1" arrows="1" fold="1" page="1" pageScale="1" pageWidth="850" pageHeight="1100" math="0" shadow="0">
      <root>
        <mxCell id="0" />
        <mxCell id="1" parent="0" />
        <mxCell id="Yo6CcI9XMuhXlqxaU10E-1" value="" style="rounded=0;whiteSpace=wrap;html=1;fillColor=#dae8fc;strokeColor=#6c8ebf;" vertex="1" parent="1">
          <mxGeometry x="240" y="80" width="325" height="80" as="geometry" />
        </mxCell>
        <mxCell id="Yo6CcI9XMuhXlqxaU10E-2" value="App Module" style="text;html=1;align=center;verticalAlign=middle;resizable=0;points=[];autosize=1;strokeColor=none;fillColor=none;fontStyle=1;fontSize=16;" vertex="1" parent="1">
          <mxGeometry x="342.5" y="80" width="120" height="30" as="geometry" />
        </mxCell>
        <mxCell id="Yo6CcI9XMuhXlqxaU10E-35" value="" style="edgeStyle=orthogonalEdgeStyle;rounded=0;orthogonalLoop=1;jettySize=auto;html=1;" edge="1" parent="1" source="Yo6CcI9XMuhXlqxaU10E-4" target="Yo6CcI9XMuhXlqxaU10E-14">
          <mxGeometry relative="1" as="geometry" />
        </mxCell>
        <mxCell id="Yo6CcI9XMuhXlqxaU10E-4" value="App Component" style="rounded=1;whiteSpace=wrap;html=1;fontStyle=1;fontSize=15;" vertex="1" parent="1">
          <mxGeometry x="342.5" y="110" width="120" height="40" as="geometry" />
        </mxCell>
        <mxCell id="Yo6CcI9XMuhXlqxaU10E-32" style="edgeStyle=orthogonalEdgeStyle;rounded=0;orthogonalLoop=1;jettySize=auto;html=1;exitX=0.5;exitY=0;exitDx=0;exitDy=0;entryX=0.5;entryY=1;entryDx=0;entryDy=0;" edge="1" parent="1" source="Yo6CcI9XMuhXlqxaU10E-5" target="Yo6CcI9XMuhXlqxaU10E-1">
          <mxGeometry relative="1" as="geometry" />
        </mxCell>
        <mxCell id="Yo6CcI9XMuhXlqxaU10E-5" value="" style="rounded=0;whiteSpace=wrap;html=1;fillColor=#fff2cc;strokeColor=#d6b656;" vertex="1" parent="1">
          <mxGeometry x="40" y="240" width="290" height="110" as="geometry" />
        </mxCell>
        <mxCell id="Yo6CcI9XMuhXlqxaU10E-11" style="edgeStyle=orthogonalEdgeStyle;rounded=0;orthogonalLoop=1;jettySize=auto;html=1;exitX=1;exitY=0.5;exitDx=0;exitDy=0;entryX=0;entryY=0.5;entryDx=0;entryDy=0;" edge="1" parent="1" source="Yo6CcI9XMuhXlqxaU10E-6" target="Yo6CcI9XMuhXlqxaU10E-8">
          <mxGeometry relative="1" as="geometry" />
        </mxCell>
        <mxCell id="Yo6CcI9XMuhXlqxaU10E-6" value="&#39; &#39;" style="rounded=0;whiteSpace=wrap;html=1;" vertex="1" parent="1">
          <mxGeometry x="50" y="250" width="120" height="30" as="geometry" />
        </mxCell>
        <mxCell id="Yo6CcI9XMuhXlqxaU10E-12" style="edgeStyle=orthogonalEdgeStyle;rounded=0;orthogonalLoop=1;jettySize=auto;html=1;exitX=1;exitY=0.5;exitDx=0;exitDy=0;" edge="1" parent="1" source="Yo6CcI9XMuhXlqxaU10E-7" target="Yo6CcI9XMuhXlqxaU10E-9">
          <mxGeometry relative="1" as="geometry" />
        </mxCell>
        <mxCell id="Yo6CcI9XMuhXlqxaU10E-7" value="&#39;signup&#39;" style="rounded=0;whiteSpace=wrap;html=1;" vertex="1" parent="1">
          <mxGeometry x="50" y="280" width="120" height="30" as="geometry" />
        </mxCell>
        <mxCell id="Yo6CcI9XMuhXlqxaU10E-8" value="Signin Component" style="rounded=0;whiteSpace=wrap;html=1;" vertex="1" parent="1">
          <mxGeometry x="200" y="250" width="120" height="30" as="geometry" />
        </mxCell>
        <mxCell id="Yo6CcI9XMuhXlqxaU10E-9" value="Signup Component" style="rounded=0;whiteSpace=wrap;html=1;" vertex="1" parent="1">
          <mxGeometry x="200" y="280" width="120" height="30" as="geometry" />
        </mxCell>
        <mxCell id="Yo6CcI9XMuhXlqxaU10E-10" value="Auth Routing Module" style="text;html=1;align=center;verticalAlign=middle;resizable=0;points=[];autosize=1;strokeColor=none;fillColor=none;fontStyle=1;fontSize=18;" vertex="1" parent="1">
          <mxGeometry x="80" y="320" width="210" height="40" as="geometry" />
        </mxCell>
        <mxCell id="Yo6CcI9XMuhXlqxaU10E-33" style="edgeStyle=orthogonalEdgeStyle;rounded=0;orthogonalLoop=1;jettySize=auto;html=1;exitX=0.5;exitY=0;exitDx=0;exitDy=0;entryX=0.5;entryY=1;entryDx=0;entryDy=0;" edge="1" parent="1" source="Yo6CcI9XMuhXlqxaU10E-13" target="Yo6CcI9XMuhXlqxaU10E-1">
          <mxGeometry relative="1" as="geometry">
            <mxPoint x="400" y="160" as="targetPoint" />
          </mxGeometry>
        </mxCell>
        <mxCell id="Yo6CcI9XMuhXlqxaU10E-13" value="" style="whiteSpace=wrap;html=1;fillColor=#dae8fc;strokeColor=#6c8ebf;" vertex="1" parent="1">
          <mxGeometry x="342.5" y="240" width="190" height="70" as="geometry" />
        </mxCell>
        <mxCell id="Yo6CcI9XMuhXlqxaU10E-14" value="Input Component" style="rounded=0;whiteSpace=wrap;html=1;fontStyle=1" vertex="1" parent="1">
          <mxGeometry x="377.5" y="250" width="120" height="30" as="geometry" />
        </mxCell>
        <mxCell id="Yo6CcI9XMuhXlqxaU10E-15" value="Shared Module" style="text;html=1;align=center;verticalAlign=middle;resizable=0;points=[];autosize=1;strokeColor=none;fillColor=none;fontStyle=1;fontSize=16;" vertex="1" parent="1">
          <mxGeometry x="367.5" y="280" width="140" height="30" as="geometry" />
        </mxCell>
        <mxCell id="Yo6CcI9XMuhXlqxaU10E-34" style="edgeStyle=orthogonalEdgeStyle;rounded=0;orthogonalLoop=1;jettySize=auto;html=1;exitX=0.5;exitY=0;exitDx=0;exitDy=0;entryX=0.5;entryY=1;entryDx=0;entryDy=0;" edge="1" parent="1" source="Yo6CcI9XMuhXlqxaU10E-38" target="Yo6CcI9XMuhXlqxaU10E-1">
          <mxGeometry relative="1" as="geometry">
            <mxPoint x="400" y="160" as="targetPoint" />
          </mxGeometry>
        </mxCell>
        <mxCell id="Yo6CcI9XMuhXlqxaU10E-16" value="" style="rounded=0;whiteSpace=wrap;html=1;fillColor=#fff2cc;strokeColor=#d6b656;" vertex="1" parent="1">
          <mxGeometry x="550" y="240" width="290" height="110" as="geometry" />
        </mxCell>
        <mxCell id="Yo6CcI9XMuhXlqxaU10E-17" style="edgeStyle=orthogonalEdgeStyle;rounded=0;orthogonalLoop=1;jettySize=auto;html=1;exitX=1;exitY=0.5;exitDx=0;exitDy=0;entryX=0;entryY=0.5;entryDx=0;entryDy=0;" edge="1" parent="1" source="Yo6CcI9XMuhXlqxaU10E-18" target="Yo6CcI9XMuhXlqxaU10E-21">
          <mxGeometry relative="1" as="geometry" />
        </mxCell>
        <mxCell id="Yo6CcI9XMuhXlqxaU10E-18" value="&#39; &#39;" style="rounded=0;whiteSpace=wrap;html=1;" vertex="1" parent="1">
          <mxGeometry x="560" y="250" width="120" height="30" as="geometry" />
        </mxCell>
        <mxCell id="Yo6CcI9XMuhXlqxaU10E-21" value="Signin Component" style="rounded=0;whiteSpace=wrap;html=1;" vertex="1" parent="1">
          <mxGeometry x="710" y="250" width="120" height="30" as="geometry" />
        </mxCell>
        <mxCell id="Yo6CcI9XMuhXlqxaU10E-23" value="Inbox Routing Module" style="text;html=1;align=center;verticalAlign=middle;resizable=0;points=[];autosize=1;strokeColor=none;fillColor=none;fontStyle=1;fontSize=18;" vertex="1" parent="1">
          <mxGeometry x="590" y="320" width="210" height="40" as="geometry" />
        </mxCell>
        <mxCell id="Yo6CcI9XMuhXlqxaU10E-36" style="edgeStyle=orthogonalEdgeStyle;rounded=0;orthogonalLoop=1;jettySize=auto;html=1;exitX=0.5;exitY=0;exitDx=0;exitDy=0;entryX=0.5;entryY=0.75;entryDx=0;entryDy=0;entryPerimeter=0;" edge="1" parent="1" source="Yo6CcI9XMuhXlqxaU10E-24" target="Yo6CcI9XMuhXlqxaU10E-10">
          <mxGeometry relative="1" as="geometry" />
        </mxCell>
        <mxCell id="Yo6CcI9XMuhXlqxaU10E-24" value="" style="whiteSpace=wrap;html=1;fillColor=#dae8fc;strokeColor=#6c8ebf;" vertex="1" parent="1">
          <mxGeometry x="40" y="400" width="290" height="110" as="geometry" />
        </mxCell>
        <mxCell id="Yo6CcI9XMuhXlqxaU10E-25" value="Signup Component" style="rounded=0;whiteSpace=wrap;html=1;" vertex="1" parent="1">
          <mxGeometry x="85" y="410" width="200" height="30" as="geometry" />
        </mxCell>
        <mxCell id="Yo6CcI9XMuhXlqxaU10E-26" value="Signin Component" style="rounded=0;whiteSpace=wrap;html=1;" vertex="1" parent="1">
          <mxGeometry x="85" y="440" width="200" height="30" as="geometry" />
        </mxCell>
        <mxCell id="Yo6CcI9XMuhXlqxaU10E-27" value="Auth Module" style="text;html=1;align=center;verticalAlign=middle;resizable=0;points=[];autosize=1;strokeColor=none;fillColor=none;fontStyle=1;fontSize=17;" vertex="1" parent="1">
          <mxGeometry x="120" y="480" width="130" height="30" as="geometry" />
        </mxCell>
        <mxCell id="Yo6CcI9XMuhXlqxaU10E-37" style="edgeStyle=orthogonalEdgeStyle;rounded=0;orthogonalLoop=1;jettySize=auto;html=1;exitX=0.5;exitY=0;exitDx=0;exitDy=0;entryX=0.5;entryY=0.75;entryDx=0;entryDy=0;entryPerimeter=0;" edge="1" parent="1" source="Yo6CcI9XMuhXlqxaU10E-28" target="Yo6CcI9XMuhXlqxaU10E-23">
          <mxGeometry relative="1" as="geometry" />
        </mxCell>
        <mxCell id="Yo6CcI9XMuhXlqxaU10E-28" value="" style="whiteSpace=wrap;html=1;fillColor=#dae8fc;strokeColor=#6c8ebf;" vertex="1" parent="1">
          <mxGeometry x="550" y="400" width="290" height="110" as="geometry" />
        </mxCell>
        <mxCell id="Yo6CcI9XMuhXlqxaU10E-29" value="Home Component" style="rounded=0;whiteSpace=wrap;html=1;" vertex="1" parent="1">
          <mxGeometry x="595" y="410" width="200" height="30" as="geometry" />
        </mxCell>
        <mxCell id="Yo6CcI9XMuhXlqxaU10E-31" value="Inbox Module" style="text;html=1;align=center;verticalAlign=middle;resizable=0;points=[];autosize=1;strokeColor=none;fillColor=none;fontStyle=1;fontSize=17;" vertex="1" parent="1">
          <mxGeometry x="630" y="480" width="130" height="30" as="geometry" />
        </mxCell>
        <mxCell id="Yo6CcI9XMuhXlqxaU10E-39" value="" style="edgeStyle=orthogonalEdgeStyle;rounded=0;orthogonalLoop=1;jettySize=auto;html=1;exitX=0.5;exitY=0;exitDx=0;exitDy=0;entryX=0.5;entryY=1;entryDx=0;entryDy=0;" edge="1" parent="1" source="Yo6CcI9XMuhXlqxaU10E-16" target="Yo6CcI9XMuhXlqxaU10E-38">
          <mxGeometry relative="1" as="geometry">
            <mxPoint x="403" y="160" as="targetPoint" />
            <mxPoint x="695" y="240" as="sourcePoint" />
          </mxGeometry>
        </mxCell>
        <mxCell id="Yo6CcI9XMuhXlqxaU10E-38" value="Guard" style="whiteSpace=wrap;html=1;fillColor=#fff2cc;strokeColor=#d6b656;fontStyle=1;fontSize=16;" vertex="1" parent="1">
          <mxGeometry x="595" y="180" width="70" height="30" as="geometry" />
        </mxCell>
      </root>
    </mxGraphModel>
  </diagram>
</mxfile>
